# xmcd
#
# Track frame offsets: 
#        150
#        19462
#        35623
#        48996
#        66790
#        91185
#        117923
#        136569
#        160300
#        181239
#        207062
#        222823
#
# Disc length: 3275 seconds
#
# Revision: 2
# Processed by: cddbd v1.5.2PL0 Copyright (c) Steve Scherf et al.
# Submitted via: ExactAudioCopyFreeDBPlugin 1.0
#
DISCID=9e0cc90c
DTITLE=Mike Beck - Feel
DYEAR=2009
DGENRE=Country
TTITLE0=Mariposa Wind
TTITLE1=Alberta Cowgirl
TTITLE2=Poncho
TTITLE3=Livin' in the Arts
TTITLE4=Don't Hurt My Heart
TTITLE5=In Old California
TTITLE6=Don't Tell Me
TTITLE7=Amanda Come Home
TTITLE8=Closer to the Light
TTITLE9=Patrick
TTITLE10=Rubin's Song
TTITLE11=Before the Moon Fell Down
EXTD=
EXTT0=
EXTT1=
EXTT2=
EXTT3=
EXTT4=
EXTT5=
EXTT6=
EXTT7=
EXTT8=
EXTT9=
EXTT10=
EXTT11=
PLAYORDER=
